<svg xmlns="http://www.w3.org/2000/svg" width="130" height="65" fill-rule="nonzero" xmlns:v="https://vecta.io/nano"><path d="M82.622 25.988h3.61a2.53 2.53 0 0 0 .903-.253c.424-.237.774-.587 1.01-1.01a2.02 2.02 0 0 1 0-.289v-.65l.325-.722 5.886-11.303 2.058-4.55.325 1.697 2.6 12.314.65 3.142a3.25 3.25 0 0 0 1.156 1.769c.294.214.624.373.975.47.166.037.34.037.506 0h16.936l-1.264.867-5.236 3.61-5.2 3.61-2.6 1.77-.325.253a2.71 2.71 0 0 0-.686.614 3.25 3.25 0 0 0-.794 1.661 3.18 3.18 0 0 0 0 1.011 2.31 2.31 0 0 0 0 .253h0v.94l3.792 16.25-2.42-1.625-10.472-6.68-.65-.433h-.253l-.36-.217-.867-.217a2.89 2.89 0 0 0-1.553.325h-.325l-.325.217-2.564 1.842-10.256 7.222-2.528 1.842-.65.47h-.29c-.17.047-.345-.05-.397-.217-.036-.093-.036-.196 0-.29a3.32 3.32 0 0 1 0-.325v-.36l.578-1.48 1.083-2.925 2.203-5.922a.18.18 0 0 0 0-.253l-2.78 5.67-1.372 2.853-.686 1.408-.18.36-.18.397a1.88 1.88 0 0 0 0 1.264 1.95 1.95 0 0 0 .758 1.083c.374.248.815.375 1.264.36.413-.033.8-.17 1.156-.397l.65-.433 2.672-1.66 5.02-2.853 5.308-3.394 2.636-1.697.325-.217.65.433 13.433 9.497h.18l.397.217a3.61 3.61 0 0 0 .975.325 3.61 3.61 0 0 0 3.106-1.408c.362-.507.563-1.11.578-1.733V57.26l-.325-1.553-3.25-15.383v-.614l2.6-1.733 10.472-7.222 2.636-1.3.65-.47h.18a5.56 5.56 0 0 0 .614-.686 3.61 3.61 0 0 0 0-3.864 3.25 3.25 0 0 0-1.806-1.3h-19.644l-.542-2.383L99.81 8.51l-.722-3.106c-.16-.652-.542-1.228-1.083-1.625-.515-.373-1.134-.575-1.77-.578a3.14 3.14 0 0 0-1.625.469c-.482.306-.88.728-1.156 1.228l-.217.506v.36l-.29.722-.578 1.48-1.192 2.89-4.586 11.34-.47 1.228h-3.43l-6.392.578-25.278 1.336c-.18 0-.325.146-.325.325s.146.325.325.325h31.597zm44.886 2.347a5.85 5.85 0 0 1-2.094 2.492l-5.092 3.61-10.04 6.753 2.456 11.086.614 2.817.325 1.444c0 .47.217.94.29 1.444.13 1.032-.02 2.08-.433 3.033s-1.056 1.786-1.878 2.42c-.858.558-1.835.905-2.853 1.01a5.85 5.85 0 0 1-3.033-.361 4.91 4.91 0 0 1-1.336-.758l-1.156-.867-2.24-1.625-9.1-6.933-12.64 7.764-2.13 1.228a8.92 8.92 0 0 1-2.311 1.047 5.27 5.27 0 0 1-2.492 0c-.437-.053-.85-.23-1.192-.506a2.42 2.42 0 0 1-.794-1.011c-.3-.794-.424-1.645-.36-2.492a3.61 3.61 0 0 1 .253-1.228c.16-.383.34-.757.542-1.12l2.275-4.406 2.24-4.406-2.203 4.442-2.167 4.442c-.198.36-.367.733-.506 1.12a4.37 4.37 0 0 0-.253 1.192c-.047.814.088 1.63.397 2.383.325.732 1 1.24 1.806 1.336a5.31 5.31 0 0 0 2.383 0c.78-.245 1.52-.597 2.203-1.047l2.13-1.3 4.406-2.636 8.378-5.344h.29l9.39 6.97 3.467 2.6c.363.284.764.515 1.192.686a5.31 5.31 0 0 0 5.128-.831c.727-.556 1.3-1.3 1.66-2.13.333-.836.457-1.74.36-2.636 0-.47 0-.94-.29-1.408l-.325-1.408-.614-2.853-2.564-11.303c-.04-.168.032-.344.18-.433l10.22-6.933 5.092-3.61c.782-.566 1.404-1.325 1.806-2.203a4.91 4.91 0 0 0 .397-2.781 4.84 4.84 0 0 0-1.119-2.564c-.68-.695-1.545-1.183-2.492-1.408a6.03 6.03 0 0 0-1.408 0h-17.08c-.194.003-.362-.134-.397-.325l-2.492-12.206-.722-2.997c0-.506-.217-1.01-.325-1.444a5.49 5.49 0 0 0-.65-1.3 4.84 4.84 0 0 0-2.203-1.769 5.02 5.02 0 0 0-2.817-.325c-.96.148-1.86.56-2.6 1.192-.755.64-1.318 1.478-1.625 2.42l-2.275 5.706-4.478 11.447c-.07.033-.148.033-.217 0l-33.367 2.203 33.186-2.6 4.37-11.267 2.167-5.742c.704-2.1 2.51-3.643 4.694-4.008 1.068-.2 2.172-.088 3.178.325a5.56 5.56 0 0 1 2.528 2.022c.323.44.578.928.758 1.444 0 .542.253 1.047.36 1.553l.686 2.997 2.6 11.7h16.683a5.09 5.09 0 0 1 1.625.253 5.74 5.74 0 0 1 2.744 1.769c1.433 1.727 1.78 4.1.903 6.175z" fill="#ffc84c"/><path d="M20.258 24.724c1.35 1.23 2.047 3.02 1.878 4.84a10.47 10.47 0 0 1-1.336 5.272c-.902 1.547-2.23 2.8-3.828 3.61-1.78.802-3.717 1.196-5.67 1.156H7.186l-1.264 6.283H0l4.514-22.714h9.967a8.74 8.74 0 0 1 5.778 1.553zm-4.983 8.992c.835-.826 1.28-1.968 1.228-3.142a2.49 2.49 0 0 0-.831-1.986 3.61 3.61 0 0 0-2.383-.686h-3.61l-1.408 6.97h3.61a4.84 4.84 0 0 0 3.394-1.156zm21.992-5.597l-.686 5.308h-.867a6.21 6.21 0 0 0-3.611 1.119 4.91 4.91 0 0 0-2.058 2.925l-1.697 8.45H22.46l3.503-17.586h5.778L31.2 31.08a7.22 7.22 0 0 1 6.067-2.961zm5.128 17.767H36.58l3.61-17.55h5.742l-3.54 17.55zm4.008-24.772a2.49 2.49 0 0 1 .686 1.842c.022.97-.372 1.903-1.083 2.564a3.61 3.61 0 0 1-2.636 1.047 2.49 2.49 0 0 1-1.842-.686c-.458-.502-.703-1.162-.686-1.842-.022-.97.372-1.903 1.083-2.564a3.61 3.61 0 0 1 2.636-1.047 2.49 2.49 0 0 1 1.842.686h0zm31.272 8.74c1.1 1.08 1.7 2.576 1.625 4.117a7.91 7.91 0 0 1 0 1.697L77.242 46.03h-5.778l1.878-9.533c.03-.288.03-.58 0-.867a2.49 2.49 0 0 0-.686-1.806c-.517-.453-1.19-.687-1.878-.65a3.61 3.61 0 0 0-2.6 1.083c-.775.78-1.303 1.773-1.517 2.853l-1.77 8.92h-5.778l1.914-9.533a3.61 3.61 0 0 0 0-.831c.047-.684-.203-1.355-.686-1.842-.517-.453-1.19-.687-1.878-.65a3.61 3.61 0 0 0-2.6 1.083 5.13 5.13 0 0 0-1.517 2.853l-1.806 8.92h-5.706l3.467-17.694h5.778l-.47 2.347c2.273-2.68 6.144-3.335 9.172-1.553a5.02 5.02 0 0 1 2.022 2.817 7.62 7.62 0 0 1 6.464-3.828c1.62-.077 3.207.494 4.406 1.59v.144zm18.85-.542a7.22 7.22 0 0 1 3.033 2.817c.74 1.296 1.115 2.77 1.083 4.26a9.82 9.82 0 0 1-1.372 5.128c-.844 1.517-2.095 2.767-3.61 3.61a11.77 11.77 0 0 1-5.453 1.264c-1.6.023-3.203-.323-4.658-1.01-1.26-.644-2.313-1.634-3.033-2.853-.74-1.296-1.115-2.77-1.083-4.26a9.82 9.82 0 0 1 1.372-5.128 9.1 9.1 0 0 1 3.611-3.611c1.693-.837 3.565-1.246 5.453-1.192 1.597-.097 3.194.188 4.658.83v.144zm-8.16 5.02c-.842 1.008-1.268 2.3-1.192 3.61a4.08 4.08 0 0 0 .903 2.781c.61.69 1.497 1.075 2.42 1.047a3.9 3.9 0 0 0 3.069-1.372c.842-1.008 1.268-2.3 1.192-3.61a4.01 4.01 0 0 0-.903-2.744c-.594-.718-1.488-1.118-2.42-1.083a3.9 3.9 0 0 0-3.069 1.228v.144z" fill="#00377b"/></svg>