<svg xmlns="http://www.w3.org/2000/svg" width="527" height="223" viewBox="0 0 527 223">
    <g fill="none" fill-rule="evenodd">
        <g fill-rule="nonzero">
            <g transform="translate(-755 -153) translate(755 153)">
                <g fill="#EFEFEF" opacity=".6">
                    <path d="M50.082 6.437H17.478c-.45 0-.855-.271-1.028-.687-.172-.416-.077-.894.242-1.213l2.136-2.136c.319-.318.414-.797.242-1.212-.173-.416-.579-.687-1.029-.687h-8.037c-.294.002-.577.119-.787.325l-8.58 8.58c-.208.209-.325.492-.325.787 0 .295.117.578.326.787l8.98 8.98c.21.205.492.322.786.325h10.67v-.054l-3.982-3.954c-.318-.318-.414-.797-.241-1.213.172-.415.578-.686 1.028-.686h32.203c.614 0 1.113-.498 1.113-1.112V7.576c.007-.3-.107-.59-.317-.804-.21-.215-.496-.335-.796-.335z" transform="translate(93.632 122.173)"/>
                </g>
                <g fill="#EFEFEF" opacity=".6">
                    <path d="M31.66 4.029H12.169c-.45 0-.856-.271-1.028-.687-.173-.416-.077-.894.241-1.212.318-.318.414-.797.241-1.213-.172-.416-.578-.687-1.028-.686H6.586c-.295 0-.578.117-.787.325L.712 5.643c-.209.209-.326.492-.326.787 0 .295.117.578.326.787l5.345 5.344c.21.206.492.322.787.326h6.66v-.041l-1.858-1.858c-.318-.318-.414-.795-.243-1.21.17-.415.574-.687 1.023-.69H31.66c.614 0 1.112-.497 1.112-1.112V5.141c.002-.295-.115-.58-.324-.788-.209-.21-.493-.326-.788-.324z" transform="translate(21.06 126.92)"/>
                </g>
                <g fill="#EFEFEF" opacity=".5">
                    <path d="M31.783 4.47H12.29c-.45 0-.856-.271-1.028-.687-.172-.416-.077-.894.241-1.212.318-.319.414-.797.241-1.213-.172-.416-.578-.687-1.028-.687H6.708c-.295 0-.578.117-.787.326L.834 6.084c-.208.209-.326.492-.326.787 0 .295.118.578.326.786l5.345 5.345c.209.209.492.326.787.326h6.66v-.034l-1.865-1.865c-.318-.319-.414-.797-.241-1.213.172-.416.578-.687 1.028-.687h19.235c.295.002.58-.114.788-.323.21-.21.326-.493.324-.789V5.582c.002-.296-.115-.58-.324-.789-.209-.209-.493-.325-.788-.323z" transform="translate(125.51 59.774)"/>
                </g>
                <path fill="#FFF" d="M525.494 189.164L0 189.164"/>
                <path fill="#B0B3BF" d="M0 189.001H525.494V190.001H0z"/>
                <path fill="#FFF" d="M351.19 146.21v-20.476h6.54v-17.757h5.71V92.045h5.162V77.843h4.47V65.282h3.736V53.989h3.588V43.978h3.392v-8.62h-2.47c-3.452-4.511-2.299-12.047-2.299-12.047.38.143.747.323 1.092.536.315-1.107 1.396-1.814 2.537-1.66 1.14.156 1.993 1.126 2.001 2.277 0 .15-.013.3-.04.448 1.098-1.553 1.722-4.11-.808-7.901 0 0 2.462 1.899 3.127 4.564.557-.505 1.282-.785 2.035-.787 2.034 0 1.58 3.154 1.58 3.154.007-.387-.143-.76-.417-1.034s-.647-.425-1.035-.417c0 0-1.573-.319-1.573 2.394 0 2.157 1.078 2.876 1.675 3.174h18.048c-.198-.337-.304-.72-.305-1.112-.01-.129-.01-.258 0-.387-2.238-.746-1.77-3.113-1.77-3.113.278 1.492 1.825 1.818 2.442 1.892.082-.08.17-.152.264-.217-.3-.498-.277-1.127.061-1.6v-.516c.055-.196-.122-.393-.312-.468-.19-.074-.407-.088-.597-.163-.418-.191-.617-.674-.454-1.105.047.264.373.393.678.387.267-.048.537-.075.807-.082.492.05.854.484.814.977v.386c.093-.007.186-.007.278 0 .09-.007.181-.007.272 0v-.386c-.04-.493.322-.927.814-.977.272.007.544.035.813.082.272 0 .59-.123.638-.387.167.43-.033.916-.454 1.105-.19.075-.4.082-.597.163-.197.082-.367.272-.312.468v.509c.348.473.372 1.11.06 1.607.096.067.186.14.272.217.61-.074 2.157-.4 2.435-1.892 0 0 .475 2.367-1.77 3.113.01.129.01.258 0 .387.002.392-.104.776-.305 1.112h18.048c.597-.298 1.675-1.017 1.675-3.174 0-2.713-1.574-2.394-1.574-2.394-.386-.008-.759.143-1.032.417s-.422.648-.412 1.034c0 0-.448-3.154 1.573-3.154.753.002 1.478.282 2.035.787.678-2.665 3.127-4.564 3.127-4.564-2.53 3.79-1.906 6.348-.807 7.901-.028-.147-.042-.297-.041-.448.008-1.15.86-2.121 2.001-2.276 1.14-.155 2.222.552 2.537 1.66.345-.214.711-.394 1.091-.537 0 0 1.154 7.536-2.292 12.046h-2.476v8.6h3.392v10.011h3.588v11.293h3.737v12.561h4.53v14.203h5.162v15.932h5.69v17.757h6.539v20.476h5.67v4.483h-3.059v40.437h-48.556v-7.793h-23.976v7.814h-48.556v-40.437h-3.059v-4.484h5.623z"/>
                <path fill="#B0B3BF" d="M469.857 191.294H420.97v-7.807h-23.65v7.807H348.43v-40.438h-3.058v-4.815h5.656v-20.477h6.538v-17.75h5.705V91.883h5.161V77.68h4.497V65.112h3.744V53.826h3.58V43.808h3.392V35.54h-2.435l-.047-.068c-3.453-4.51-2.34-12.086-2.327-12.167V23.1l.197.075c.323.122.636.27.936.44.406-1.089 1.516-1.75 2.667-1.586 1.151.163 2.034 1.105 2.121 2.265.8-1.492 1.086-3.832-1.139-7.17l-.556-.833.793.61c1.434 1.144 2.515 2.67 3.12 4.402.551-.436 1.231-.674 1.933-.678.459-.017.9.175 1.2.522.801.915.55 2.747.543 2.821h-.332c.011-.344-.12-.677-.362-.921-.243-.244-.576-.377-.92-.367-.282-.04-.567.042-.787.223-.49.558-.717 1.299-.624 2.035 0 1.486.51 2.476 1.554 3.012h17.804c-.13-.3-.197-.623-.197-.95v-.278c-2.204-.827-1.757-3.228-1.75-3.249l.17-.848.156.848c.244 1.316 1.58 1.655 2.224 1.743l.109-.088c-.258-.515-.219-1.129.102-1.607v-.502c0-.102-.089-.224-.21-.278-.09-.03-.18-.053-.272-.068-.11-.02-.22-.05-.325-.088-.245-.109-.437-.308-.536-.556-.105-.248-.105-.527 0-.774l.217-.508.095.542c0 .17.285.265.474.251.108-.004.214-.017.32-.04.168-.038.342-.052.515-.041.285.033.546.176.725.4.18.212.264.49.231.766v.184c.072-.007.145-.007.217 0v-.204c-.03-.27.054-.54.23-.746.182-.225.446-.37.733-.4.173-.01.347.003.516.04.102.024.207.038.312.041.21 0 .44-.081.474-.25l.095-.543.217.508c.102.248.102.526 0 .774-.103.245-.294.443-.535.556-.109.038-.22.067-.333.088-.09.014-.18.04-.264.074-.13.048-.244.17-.217.272v.495c.176.268.27.581.271.902.002.247-.054.49-.163.712l.109.088c.637-.088 1.973-.427 2.218-1.743l.156-.848.17.848s.454 2.422-1.75 3.249v.278c0 .327-.067.65-.197.95h17.736c1.044-.536 1.553-1.526 1.553-3.012.092-.736-.135-1.477-.624-2.035-.208-.176-.482-.255-.753-.217-.349-.017-.69.113-.94.357-.25.245-.385.583-.376.932h-.332c0-.074-.25-1.906.55-2.821.297-.347.737-.539 1.193-.523.702.005 1.382.243 1.933.679.605-1.732 1.687-3.258 3.12-4.402l.8-.61-.563.834c-2.224 3.337-1.94 5.677-1.139 7.169.087-1.16.97-2.102 2.121-2.265 1.152-.163 2.261.497 2.667 1.586.301-.17.614-.317.936-.44l.197-.075v.203c0 .082 1.126 7.658-2.326 12.168l-.048.068h-2.387v8.268H438v10.018h3.588v11.286h3.737v12.56h4.497v14.203h5.161v15.933h5.705v17.75h6.538v20.476h5.656v4.815h-3.058l.033 40.438zm-48.555-.333h48.223v-40.437h3.059v-4.15h-5.657v-20.477h-6.538v-17.75h-5.704V92.215h-5.161V78.012h-4.497V65.444h-3.737V54.158h-3.588v-9.984h-3.392v-8.966h2.55c2.998-3.995 2.395-10.411 2.246-11.646-.302.125-.592.275-.869.448l-.19.115-.054-.21c-.281-1.039-1.29-1.708-2.356-1.563-1.066.144-1.86 1.057-1.856 2.133-.01.138-.01.276 0 .414l.15.752-.441-.624c-.99-1.356-1.69-3.696.176-7.067-1.035 1.016-1.793 2.279-2.204 3.67l-.068.264-.204-.176c-.525-.478-1.209-.743-1.919-.747-.36-.017-.708.133-.943.407-.332.462-.508 1.018-.502 1.588.321-.397.806-.627 1.316-.624.358-.04.717.066.997.291.495.414.746 1.174.746 2.272 0 1.621-.597 2.713-1.77 3.324h-18.387l.142-.251c.183-.313.279-.669.278-1.031.01-.12.01-.24 0-.36v-.135l.136-.048c.964-.278 1.644-1.14 1.689-2.143-.544.728-1.38 1.182-2.286 1.241h-.075l-.054-.047c-.077-.074-.161-.14-.25-.197l-.13-.095.082-.129c.127-.203.193-.438.19-.678.001-.27-.085-.535-.245-.753V23.02c-.03-.286.142-.554.414-.645.106-.038.215-.068.326-.088.092-.017.183-.041.271-.074.165-.07.293-.205.353-.373.022-.053.038-.107.047-.163-.158.1-.343.146-.529.136-.123-.006-.246-.022-.366-.048-.142-.017-.285-.017-.427 0-.198.021-.38.122-.502.278-.124.142-.183.329-.163.516v.61l-.197-.04c-.161-.028-.326-.028-.488 0l-.197.04v-.59c.026-.194-.034-.39-.163-.536-.123-.156-.304-.257-.502-.278-.142-.013-.285-.013-.427 0-.118.025-.238.041-.36.048-.188.013-.376-.035-.535-.136.01.056.025.11.047.163.06.168.188.303.353.373.088.033.179.057.271.074.111.02.22.05.326.088.272.091.444.36.414.645V23.61c-.306.417-.327.978-.055 1.417l.089.136-.136.088c-.088.062-.172.13-.251.204l-.054.047h-.075c-.907-.06-1.742-.513-2.286-1.241.047 1.002.726 1.863 1.69 2.143l.135.048v.135c-.01.12-.01.24 0 .36 0 .362.095.718.278 1.03l.142.252h-18.407c-1.174-.584-1.77-1.703-1.77-3.324 0-1.098.25-1.858.752-2.272.284-.239.658-.342 1.024-.285.496.006.964.232 1.276.618.005-.568-.168-1.123-.496-1.588-.238-.272-.587-.422-.95-.407-.709.004-1.393.27-1.919.747l-.203.176-.068-.265c-.41-1.39-1.17-2.653-2.204-3.669 1.865 3.391 1.166 5.684.183 7.067l-.448.624.15-.752c.013-.138.013-.277 0-.414.004-1.076-.79-1.99-1.856-2.133-1.067-.145-2.075.524-2.356 1.563l-.055.21-.19-.115c-.275-.175-.565-.325-.868-.448-.149 1.235-.753 7.658 2.245 11.646h2.55v8.966h-3.39v10.018h-3.582v11.286h-3.737v12.568h-4.504V92.25h-5.25v15.932h-5.703v17.75h-6.505v20.476h-5.656v4.15h3.059v40.438h48.223v-7.84h24.315l-.006 7.806z"/>
                <path fill="#FFF" d="M315.501 188.533c.814-37.304 1.479-37.982 1.486-38.81.005-.094.005-.19 0-.284l-5.155-27.07c-.122-.709-.738-1.227-1.458-1.227h-1.933c-.393.002-.771-.153-1.05-.43-.279-.278-.436-.655-.436-1.048v-2.035c0-.817-.662-1.479-1.478-1.479h-2.713c-.815-.003-1.475-.663-1.479-1.478V99.269c0-.817-.662-1.479-1.478-1.479H286.92c-.817 0-1.479.662-1.479 1.479v15.443c0 .818-.66 1.482-1.478 1.486h-1.933c-.818-.004-1.479-.668-1.479-1.486V79.16c0-.818-.66-1.482-1.478-1.486h-12.887c-.82 0-1.485.665-1.485 1.486v9.637c.001.372-.137.73-.387 1.004l-11.747 12.765c-.253.273-.394.632-.394 1.004v11.143c0 .817-.662 1.479-1.478 1.479H249.1c-.397.007-.78-.145-1.063-.423-.284-.278-.443-.659-.443-1.056v-7.786c.002-.391-.152-.768-.429-1.045-.276-.278-.651-.434-1.043-.434h-5.114c-.392 0-.768.156-1.045.434-.278.277-.433.653-.433 1.045v7.739c0 .816-.662 1.478-1.479 1.478h-.481c-.393.002-.77-.153-1.048-.43-.278-.278-.433-.655-.431-1.048v-2.096c-.004-.818-.668-1.478-1.485-1.478h-5.148c-.817 0-1.479.662-1.479 1.478v7.115c0 .82-.665 1.485-1.485 1.485h-3.147c-.392-.003-.77.15-1.048.427-.277.277-.433.653-.431 1.045v13.036c0 .393-.157.77-.435 1.048-.28.277-.657.432-1.05.43h-14.766c-.816 0-1.478-.661-1.478-1.478v-3.547c0-.818-.661-1.482-1.479-1.486h-4.748c-.392.002-.77-.153-1.047-.43-.278-.278-.433-.655-.431-1.048v-6.532c-.004-.817-.668-1.478-1.486-1.478h-5.1c-.817 0-1.479.662-1.479 1.478v14.033c-.001.311-.098.614-.278.868l-6.104 8.472v13.158h-35.67"/>
                <path fill="#B0B3BF" d="M315.664 188.54h-.332c.325-14.67.834-33.234 1.451-38.396v-.414c.007-.083.007-.167 0-.25l-5.154-27.07c-.104-.63-.65-1.093-1.29-1.091H308.4c-.91 0-1.648-.738-1.648-1.649v-2.034c0-.727-.59-1.316-1.316-1.316h-2.713c-.907 0-1.644-.734-1.648-1.642v-15.41c.002-.348-.135-.682-.381-.93-.246-.246-.58-.385-.928-.385h-12.887c-.348 0-.682.139-.928.386-.245.247-.383.581-.38.93v15.443c0 .91-.739 1.649-1.649 1.649h-1.933c-.436 0-.855-.174-1.163-.484-.308-.309-.48-.728-.478-1.165V79.16c0-.727-.59-1.316-1.316-1.316h-12.887c-.724.003-1.309.591-1.309 1.316v9.637c0 .415-.155.814-.434 1.12l-11.747 12.757c-.22.247-.344.565-.346.896v11.143c0 .91-.738 1.649-1.648 1.649h-1.594c-.908-.004-1.642-.741-1.642-1.649v-7.786c.003-.35-.137-.685-.386-.93-.242-.249-.575-.389-.923-.386h-5.114c-.348 0-.682.14-.928.386-.245.247-.382.582-.38.93v7.739c0 .91-.738 1.648-1.649 1.648h-.481c-.437 0-.857-.174-1.166-.483-.309-.309-.482-.728-.482-1.165v-2.096c-.004-.724-.592-1.309-1.316-1.309h-5.148c-.724 0-1.312.585-1.316 1.31v7.114c0 .437-.174.856-.483 1.165-.309.31-.728.483-1.165.483h-3.147c-.348-.002-.682.136-.928.381-.246.246-.383.58-.381.928v13.036c-.008.91-.745 1.645-1.655 1.648H205.61c-.91 0-1.648-.738-1.648-1.648v-3.554c-.003-.721-.587-1.305-1.309-1.309h-4.748c-.91 0-1.648-.738-1.648-1.648v-6.532c0-.726-.589-1.315-1.315-1.315h-5.1c-.728 0-1.317.589-1.317 1.315v14.033c.002.346-.108.684-.312.963l-6.104 8.431v13.273h-35.839v-.332h35.534v-13.09l6.104-8.478c.161-.223.247-.492.244-.767v-14.033c0-.91.738-1.648 1.648-1.648h5.1c.911 0 1.649.738 1.649 1.648v6.532c0 .727.59 1.316 1.316 1.316h4.748c.904.003 1.637.736 1.64 1.641v3.554c0 .727.59 1.316 1.317 1.316h14.765c.734 0 1.335-.583 1.357-1.316v-13.036c0-.906.735-1.641 1.641-1.641h3.147c.35 0 .684-.139.93-.386.247-.246.386-.581.386-.93v-7.115c.004-.907.74-1.641 1.648-1.641h5.148c.908 0 1.644.734 1.648 1.641v2.096c0 .727.59 1.316 1.316 1.316h.482c.726 0 1.315-.59 1.315-1.316v-7.739c-.001-.436.17-.856.479-1.165.308-.31.726-.483 1.163-.483h5.114c.436 0 .855.174 1.163.483.308.31.48.729.478 1.165v7.786c0 .724.585 1.312 1.31 1.316h1.593c.727 0 1.316-.589 1.316-1.316V103.57c-.004-.415.151-.816.434-1.12l11.747-12.757c.22-.247.344-.565.346-.896V79.16c0-.908.734-1.645 1.641-1.649h12.887c.91 0 1.648.738 1.648 1.649v35.553c0 .724.585 1.312 1.31 1.316h1.932c.349 0 .683-.139.928-.386.246-.247.383-.581.381-.93V99.27c0-.91.738-1.649 1.648-1.649h12.887c.437 0 .855.174 1.163.484.308.309.48.728.479 1.165v15.403c.003.724.591 1.309 1.315 1.309h2.713c.91 0 1.649.738 1.649 1.648v2.035c0 .726.589 1.315 1.315 1.315h1.94c.797-.001 1.479.572 1.614 1.357l5.155 27.069c.01.104.01.208 0 .312-.004.15-.017.3-.04.447-.564 5.162-1.079 23.719-1.398 38.376z"/>
                <path fill="#E0E0E0" d="M471.75 135.216c-5.182-56.973-1.31-116.408-1.269-117.005v-1.797h.679v1.824c-.041.61-3.907 60.018 1.261 116.917l-.671.06z"/>
                <path fill="#E0E0E0" d="M458.53 28.71c-.564-3.393.698-6.833 3.324-9.054 2.497-2.096 5.895-2.765 9-1.77 2.713-.564 6.783-.238 9.496 1.824 1.925 1.48 3.071 3.757 3.113 6.186l-.678.04c-.034-2.228-1.08-4.32-2.842-5.683-2.577-1.954-6.498-2.245-9.055-1.69h-.176c-2.904-.963-6.1-.352-8.444 1.615-2.444 2.078-3.616 5.287-3.086 8.45l-.651.082z"/>
                <path fill="#E0E0E0" d="M470.814 18.794l-.265-.352c-3.723-4.979-7.718-7.922-16.149-7.25l-.054-.68c8.54-.677 12.69 2.212 16.481 7.163 2.496-3.025 6.2-4.965 9.55-4.971 2.334-.048 4.551 1.02 5.969 2.875l-.536.414c-1.29-1.685-3.305-2.655-5.426-2.611-3.276 0-6.925 1.994-9.292 5.053l-.278.36z"/>
                <path fill="#E0E0E0" d="M471.051 18.76l-.4-.23c-9.109-5.175-17.757-.156-17.845-.109l-.346-.583c.089-.048 8.818-5.114 18.137-.115 1.892-7.264 11.53-14.128 11.978-14.427l.393.556c-.108.075-10.269 7.292-11.815 14.454l-.102.454z"/>
                <path fill="#E0E0E0" d="M470.943 21.331l-.462-3.045c-1.736-11.578-8.932-16.116-9.007-16.163l.353-.577c1.536 1.045 2.89 2.335 4.008 3.819 2.367 3.065 4.025 6.616 4.857 10.398.585-5.32 1.566-10.59 2.937-15.763l.678.183c-1.57 5.922-2.615 11.97-3.12 18.075l-.244 3.073z"/>
                <ellipse cx="470.827" cy="17.384" fill="#E0E0E0" rx="1.085" ry="1.411"/>
                <path fill="#E0E0E0" d="M491.202 184.47l-.678-.06c5.168-56.9 1.302-116.307 1.261-116.897v-1.852h.679v1.825c.047.576 3.913 60.032-1.262 116.984z"/>
                <path fill="#E0E0E0" d="M504.441 77.965l-.678-.088c.532-3.164-.64-6.374-3.086-8.451-2.344-1.967-5.54-2.578-8.444-1.615h-.183c-2.55-.556-6.47-.264-9.048 1.682-1.762 1.365-2.808 3.456-2.842 5.684l-.678-.04c.039-2.428 1.186-4.704 3.113-6.18 2.713-2.034 6.782-2.387 9.495-1.824 3.106-.994 6.504-.326 9 1.77 2.64 2.218 3.913 5.662 3.351 9.062z"/>
                <path fill="#E0E0E0" d="M492.138 68.049l-.271-.353c-2.374-3.059-6.016-5.046-9.292-5.053-2.122-.047-4.139.924-5.426 2.611l-.536-.42c1.42-1.852 3.636-2.917 5.968-2.87 3.351 0 7.054 1.947 9.55 4.972 3.792-4.95 7.942-7.854 16.482-7.169l-.055.679c-8.43-.679-12.425 2.272-16.149 7.243l-.271.36z"/>
                <path fill="#E0E0E0" d="M491.9 68.015l-.101-.455c-1.547-7.162-11.714-14.378-11.815-14.453l.393-.556c.42.298 10.086 7.162 11.978 14.426 9.306-5.005 18.048.068 18.136.115l-.346.584c-.088-.048-8.749-5.06-17.844.108l-.4.23z"/>
                <path fill="#E0E0E0" d="M492.01 70.585l-.218-3.072c-.506-6.105-1.55-12.154-3.12-18.075l.678-.184c1.37 5.174 2.35 10.443 2.93 15.763.837-3.781 2.497-7.332 4.863-10.398 1.12-1.48 2.47-2.77 4.002-3.818l.36.576c-.075.041-7.271 4.579-9.008 16.163l-.488 3.045z"/>
                <ellipse cx="492.124" cy="66.638" fill="#E0E0E0" rx="1.085" ry="1.411"/>
                <path fill="#E0E0E0" d="M341.56 179.58l-.638-.217c11.123-32.488 9.38-63.01 5.962-82.889-3.703-21.541-10.113-35.567-10.174-35.71v-.095l-.25-1.804.678-.095.244 1.757c.413.916 6.6 14.827 10.214 35.832 3.391 19.96 5.128 50.597-6.036 83.221z"/>
                <path fill="#E0E0E0" d="M329.935 74.94c-1.839-2.911-2.011-6.574-.455-9.645 1.486-2.9 4.357-4.837 7.603-5.127 2.272-1.567 6.172-2.863 9.496-2.035 2.349.615 4.289 2.268 5.27 4.49l-.61.298c-.893-2.041-2.669-3.562-4.823-4.13-3.14-.794-6.864.46-8.994 1.967l-.074.054h-.095c-3.044.238-5.749 2.034-7.149 4.748-1.448 2.86-1.283 6.272.434 8.98l-.603.4z"/>
                <path fill="#E0E0E0" d="M337.416 61.015l-.38-.223c-5.365-3.14-10.174-4.3-17.696-.4l-.312-.604c7.597-3.948 12.555-2.89 17.967.196 1.126-3.757 3.785-6.979 6.87-8.295 2.134-.956 4.596-.837 6.627.32l-.332.596c-1.847-1.058-4.09-1.164-6.03-.285-3.018 1.275-5.609 4.524-6.599 8.261l-.115.434z"/>
                <path fill="#E0E0E0" d="M320.683 67.676l-.55-.4c.062-.089 6.105-8.14 16.665-7.163-1.078-7.427 5.155-17.512 5.426-17.946l.57.36c-.06.101-6.62 10.702-5.263 17.905l.088.454-.461-.054c-10.398-1.214-16.414 6.762-16.475 6.844z"/>
                <path fill="#E0E0E0" d="M338.521 63.301l-1.607-2.625c-6.105-10.01-14.494-11.38-14.583-11.388l.102-.678c1.82.368 3.568 1.03 5.175 1.96 3.373 1.904 6.282 4.53 8.519 7.692-1.521-5.13-2.655-10.368-3.391-15.668l.678-.081c.857 6.067 2.246 12.048 4.15 17.872l.957 2.916z"/>
                <ellipse cx="336.893" cy="59.749" fill="#E0E0E0" rx="1.085" ry="1.411" transform="rotate(-22.88 336.893 59.749)"/>
                <path fill="#B0B3BF" d="M380.613 43.856H417.713V44.856H380.613zM428.057 43.856H436.474V44.856H428.057zM379.705 53.846H433.836V54.846H379.705zM375.459 65.092H393.697V66.092H375.459zM412.912 77.694H446.268V78.694H412.912zM439.879 91.903H452.562V92.903H439.879z"/>
                <path fill="#3B3C40" d="M526.356 218.892c0 1.688-78.345 3.058-174.989 3.058s-174.988-1.356-174.988-3.058c0-1.703 78.344-3.066 174.988-3.066s174.989 1.37 174.989 3.066z"/>
                <path fill="#3B3C40" d="M244.57 191.355c-.002 1.337-.077 2.672-.224 4.001-1.458 13.321-10.112 23.55-20.564 23.55h-11.368c-11.483 0-20.788-12.331-20.788-27.551v-1.12c.44-14.697 9.577-26.451 20.775-26.451 1.942.003 3.867.357 5.683 1.044 1.817-.687 3.742-1.04 5.684-1.044 11.49 0 20.802 12.337 20.802 27.57zM427.413 191.355c-.002 1.337-.077 2.672-.224 4.001-1.458 13.321-10.113 23.55-20.565 23.55h-11.367c-11.483 0-20.789-12.331-20.789-27.551v-1.12c.441-14.697 9.577-26.451 20.775-26.451 1.942.003 3.868.356 5.684 1.044 1.816-.687 3.742-1.04 5.684-1.044 11.49 0 20.802 12.337 20.802 27.57z"/>
                <path fill="#3B3C40" d="M219.828 189.517H463.56399999999996V209.057H219.828z"/>
                <path fill="#CA5858" d="M372.63 110.914c.475-.332.217-.59-.596-.793-5.108-1.248-32.156-.15-38.823.915-3.724.59-14.386 4.334-16.841 5.318-8.641 3.452-43.497 21.799-51.31 26.126-.204.11-.308.345-.252.57.056.225.257.384.49.386 9.454.17 53.303.075 56.918 0l1.099-.034H324.068l1.193-.054c.441 0 .91-.04 1.398-.068h.468l1.655-.095.59-.034.915-.054c-3.764.394 20.307 14.304 4.843 17.553l-1.234.265c-1.886.4-24.587.678-26.629 1.153-11.944 2.713-28.791 11.53-35.269 16.55-6.714 5.188-5.955 2.55-7.196 7.053-.068.25-.135.502-.196.753-1.621 6.294 2.672 3.56 3.39 10.906.3 3.195-11.672 6.626-6.103 7.373 3.764.488 15.023 1.24 15.023 1.24s-1.357-15.769 3.656-27.984c3.174-7.712 8.885-14.006 19.1-14.033h.067c3.326-.082 6.62.674 9.577 2.198 10.757 5.778 13.68 21.27 14.243 31.2 0 .264 0 .535.047.793.224 4.7-.08 7.962-.25 8.01-18.89.095-74.079-.556-77.043-.617-11.87-.217-53.032-.42-56.796-.91-4.405-.501-7.876-3.983-8.363-8.39-.679-7.338-.91-12.065.719-18.353-.003-.05-.003-.1 0-.149.047-.203.101-.4.162-.603 1.045-3.812 3.975-8.438 8.913-12.921.904-.814 1.874-1.621 2.91-2.421 6.47-5.006 15.6-9.59 27.53-12.304 2.034-.461 3.994-.888 5.88-1.295 7.61-1.628 13.985-2.774 18.99-3.582 8.621-1.356 13.247-1.75 13.247-1.75s51.547-27.869 58.574-30.154c7.026-2.286 10.662-4.348 18.082-5.155 8.6-.936 86.138-.8 86.138-.8 3.147.013-58.242 10.112-49.669 4.191z"/>
                <path fill="#3B3C40" d="M319.205 206.493c-21.833 0-70.057-.576-72.851-.63-3.778-.068-10.425-.136-18.11-.21-16.101-.164-36.137-.367-38.72-.68-4.568-.507-8.169-4.12-8.662-8.688-.678-6.918-.956-11.944.726-18.475l.04-.15c.048-.196.102-.4.156-.61 1.167-4.212 4.368-8.858 9.021-13.076.923-.835 1.913-1.655 2.923-2.442 7.285-5.63 16.848-9.91 27.666-12.365 2.035-.452 3.995-.884 5.88-1.295 6.675-1.424 13.077-2.625 19.032-3.581 7.963-1.282 12.582-1.696 13.206-1.75 2.862-1.546 51.642-27.89 58.56-30.148 1.98-.638 3.649-1.248 5.27-1.845 4.192-1.526 7.501-2.713 12.887-3.324 8.519-.922 85.418-.8 86.192-.8.346 0 .427.19.447.305.02.116 0 .326-.352.428-1.303.407-13.355 2.462-25.774 4.07-24.152 3.167-24.96 1.512-25.224.962-.34-.678.59-1.356.895-1.546-.16-.073-.329-.13-.502-.17-4.937-1.207-31.762-.183-38.66.923-3.69.59-14.42 4.36-16.766 5.297-8.655 3.459-43.707 21.914-51.276 26.112-.069.036-.103.116-.081.19.01.08.082.137.163.13 9.495.169 53.147.08 56.898 0l3.045-.116 1.167-.054 2.34-.136h.495l1.058-.068c.187-.015.351.125.366.312.015.187-.124.351-.312.366h-.101c.122.475 1.722 1.94 3.018 3.134 3.486 3.201 8.26 7.596 7.345 10.927-.454 1.668-2.218 2.808-5.426 3.472l-1.227.265c-.943.196-6.634.366-12.663.542-6.03.177-12.941.373-13.966.604-1.553.36-3.2.814-4.89 1.356 2.452.268 4.83 1.002 7.007 2.164 11.313 6.104 13.91 22.321 14.446 31.464 0 .244 0 .482.041.719v.075c0 .074.271 6.389-.25 7.996.002.027.002.055 0 .082-.015.177-.162.315-.34.318l-4.137-.054zm-41.95-.956c16.766.163 36.008.312 45.897.264.277-2.552.329-5.123.156-7.684v-.068c0-.237 0-.475-.04-.719-.53-9-3.066-24.987-14.088-30.908-2.573-1.358-5.42-2.117-8.329-2.218-5.495 1.944-10.846 4.274-16.013 6.973-1.627 2.075-2.947 4.372-3.92 6.823-4.565 11.09-3.812 25.319-3.663 27.537zm-16.482-1.614s.116.21 1.187.352c3.317.434 12.602 1.079 14.617 1.221-.17-2.53-.848-16.671 3.71-27.754.825-2.055 1.878-4.012 3.14-5.833-3.898 2.006-7.634 4.31-11.178 6.891-1.548 1.216-3.18 2.322-4.883 3.31-1.445.848-1.445.848-2.17 3.48v.08c-.068.252-.136.503-.197.747-.8 3.12-.136 3.825.875 4.89 1.01 1.065 2.163 2.293 2.503 5.9.162 1.737-2.51 3.331-4.87 4.749-1.085.644-2.713 1.614-2.713 1.973l-.02-.006zm152.003-96.855c-21.087 0-69.82.082-76.473.808-5.304.576-8.58 1.77-12.724 3.282-1.627.597-3.31 1.214-5.297 1.859-6.918 2.252-57.997 29.843-58.512 30.128-.043.02-.089.034-.136.04-.04 0-4.748.38-13.22 1.75-5.947.95-12.336 2.15-18.99 3.575-1.877.402-3.834.834-5.874 1.295-10.723 2.435-20.191 6.667-27.401 12.209-.997.773-1.967 1.587-2.883 2.407-4.557 4.13-7.69 8.662-8.817 12.758-.054.204-.108.394-.156.59v.116c-1.668 6.47-1.356 11.435-.719 18.278.461 4.255 3.818 7.617 8.071 8.085 2.544.332 22.559.536 38.66.678 7.692.075 14.332.143 18.117.21 1.112 0 9.387.13 20.347.245-1.94-.17-3.71-.333-4.822-.482-1.113-.149-1.669-.42-1.764-.895-.156-.753.93-1.438 3.025-2.713 1.967-1.173 4.66-2.78 4.538-4.07-.319-3.39-1.357-4.51-2.32-5.5-1.078-1.146-1.933-2.035-1.03-5.528.06-.244.121-.495.196-.753v-.088c.773-2.788.8-2.896 2.49-3.88 1.676-.974 3.283-2.064 4.808-3.262 3.964-2.877 8.158-5.422 12.54-7.61 3.833-4.748 8.96-7.135 15.322-7.149h1.052c2.124-.741 4.286-1.368 6.477-1.878 1.092-.245 7.407-.428 14.094-.624 5.731-.17 11.66-.34 12.54-.53l1.229-.264c2.862-.597 4.503-1.607 4.883-2.991.807-2.93-3.988-7.332-7.156-10.248-2.089-1.913-3.147-2.917-3.235-3.602H328.85l-2.346.136-1.174.054-3.045.115c-3.764.109-47.478.197-56.973 0-.383-.006-.714-.269-.808-.64-.093-.371.074-.76.408-.947 7.583-4.205 42.682-22.68 51.35-26.153 2.666-1.058 13.192-4.748 16.916-5.338 6.965-1.105 33.966-2.13 38.958-.909.489.122 1.004.305 1.085.72.029.283-.123.554-.38.677-.63.435-.678.679-.678.679.163.291 2.144 1.614 25.055-1.418 9.156-1.207 17.818-2.604 22.206-3.391l-6.647.17zm-113.946 57.13c-4.85.076-9.466 2.097-12.812 5.609 4.17-2.096 8.45-3.96 12.826-5.582l-.014-.028z"/>
                <path fill="#3B3C40" d="M276.943 205.856h23.182l23.271.257s15.335-33.83-2.313-42.33c-17.648-8.498-63.212 3.595-44.14 42.073zM447.353 205.856h23.183l20.429-5.426s9.4-30.46-8.241-38.952c-17.641-8.492-54.45 5.9-35.37 44.378z"/>
                <path fill="#3B3C40" d="M309.716 191.355c.01 1.337-.062 2.673-.217 4.001-.977 8.926-2.143 23.55-9.197 23.55h-11.374c-11.476 0-20.789-12.331-20.789-27.551v-1.12c.441-14.69 9.57-26.451 20.768-26.451 11.503 0 20.32-9.136 20.809 27.57z"/>
                <path fill="#4E4D5F" d="M321.083 191.355c0 1.336-.072 2.672-.217 4.001-1.458 13.321-10.112 23.55-20.564 23.55-11.483 0-20.789-12.331-20.789-27.551v-1.12c.441-14.69 9.57-26.451 20.768-26.451 11.497 0 20.802 12.337 20.802 27.57z"/>
                <path fill="#FDFCEF" d="M300.302 209.24c-7.46 0-13.51-8.03-13.51-17.906 0-9.875 6.056-17.899 13.51-17.899s13.504 8.03 13.504 17.9c0 9.868-6.057 17.905-13.504 17.905z"/>
                <path fill="#FDFCEF" d="M300.302 210.257c-8.01 0-14.528-8.491-14.528-18.923 0-10.431 6.518-18.916 14.528-18.916 8.01 0 14.521 8.485 14.521 18.916 0 10.432-6.518 18.923-14.521 18.923zm0-35.804c-6.891 0-12.494 7.576-12.494 16.881 0 9.306 5.603 16.889 12.494 16.889 6.89 0 12.486-7.576 12.486-16.889 0-9.312-5.602-16.881-12.486-16.881z"/>
                <path fill="#3B3C40" d="M481.055 176.684c0 1.357-3.533 17.35-3.683 18.652-.976 8.946-1.926 23.549-9 23.549h-11.53c-11.483 0-20.788-12.33-20.788-27.55v-1.12c.44-14.69 16.793-15.96 20.768-26.452 2.17-5.738 24.233-2.292 24.233 12.921z"/>
                <path fill="#4E4D5F" d="M490.26 190.676c0 1.36-.076 2.719-.231 4.07-1.52 13.633-10.547 24.105-21.453 24.105-11.978 0-21.704-12.622-21.704-28.202v-1.146c.46-15.044 9.983-27.055 21.704-27.055 11.977.033 21.683 12.663 21.683 28.228z"/>
                <path fill="#FDFCEF" d="M468.576 207.856c-7.461 0-13.511-7.705-13.511-17.173 0-9.468 6.063-17.173 13.51-17.173 7.448 0 13.505 7.705 13.505 17.173 0 9.468-6.057 17.173-13.504 17.173z"/>
                <path fill="#FDFCEF" d="M468.576 208.874c-8.01 0-14.529-8.14-14.529-18.19 0-10.053 6.518-18.192 14.529-18.192 8.01 0 14.52 8.14 14.52 18.191 0 10.052-6.51 18.19-14.52 18.19zm0-34.347c-6.891 0-12.494 7.25-12.494 16.156 0 8.906 5.603 16.156 12.494 16.156 6.89 0 12.486-7.25 12.486-16.156 0-8.905-5.575-16.156-12.486-16.156z"/>
                <path fill="#CA5858" d="M510.424 169.04c-1.052-10.004-.916-9.319-.916-10.302 0-.428 0-1.18-.19-3.304 0-.298-.047-.596-.068-.902-.088-1.125-.176-2.312-.264-3.547 0-.44-.055-.956-.068-1.52v-.155c-.012-2.12-.21-4.236-.59-6.321-.678-3.06-1.784-3.9-1.838-3.989-.665-.697-1.558-1.133-2.517-1.227-14.88-1.465-14.412-6.545-32.644-19.059-9.271-5.684-21.873-9.95-42.831-11.998l-39.488.054c-2.11.265-4.144.53-6.104.909-8.14 1.635-9.998.617-20.944 8.478-1.418 1.017-2.992 2.19-4.748 3.534-5.426 4.13-12.589 9.916-22.491 18.089-3.066 2.53-8.878 5.229-8.878 5.229-6.45.983-18.578 3.534-24.946 4.89-13.036 2.788-23.963 5.582-34.652 13.857-12.69 9.8-14.243 18.631-12.744 34.448.488 4.41 3.966 7.894 8.376 8.39 3.757.488 15.016 1.241 15.016 1.241s-1.356-15.77 3.663-27.984c6.362-15.464 18.462-13.748 19.167-14.027 26.045 0 24.478 42.052 23.63 42.276-1.356.55 123.266-.265 123.815-.265 0-.047-2.286-13.199.448-24.83 5.195-22.335 27.265-20.945 35.994-12.04.204.204.4.414.597.631 6.742 7.407 7.868 20.558 6.728 30.773 0 0 17.635-.102 18.496-.557 6.105-3.296 5.128-7.304 5.535-17.363.481-11.401-4.544-13.409-4.544-13.409z"/>
                <path fill="#3B3C40" d="M342.32 206.65h-2.13c-12.358 0-15.77-.035-16.746-.198h-.061c-.306-.06-.326-.142-.346-.244l.21-.373c-.042.022-.077.055-.102.095.523-1.078 1.241-19.832-6.335-31.918-4.07-6.498-9.787-9.794-16.956-9.808-.238.037-.478.053-.719.048-8.383.196-14.5 4.829-18.184 13.768-4.93 11.998-3.649 27.673-3.635 27.808l-.36.367c-.115 0-11.313-.76-15.043-1.248-4.565-.513-8.163-4.123-8.661-8.689-1.506-16 0-24.81 12.886-34.753 10.696-8.288 21.616-11.103 34.781-13.918 4.443-.95 17.913-3.812 24.878-4.876.455-.21 5.894-2.788 8.777-5.169 10.343-8.539 17.282-14.12 22.497-18.102 1.723-1.316 3.324-2.51 4.748-3.54 9.041-6.485 11.944-6.966 17.22-7.841 1.127-.183 2.402-.4 3.853-.679 1.906-.373 3.887-.637 6.105-.915l39.528-.054c18.99 1.858 32.624 5.683 43.008 12.045 4.6 3.157 9.03 6.553 13.273 10.174 6.457 5.426 9.4 7.854 19.228 8.817 1.032.09 1.995.55 2.713 1.296v.074c1.059 1.045 1.608 2.808 1.886 4.104.375 2.027.572 4.083.59 6.145v.4c0 .542.04 1.058.068 1.499.088 1.227.176 2.414.258 3.54 0 .312.054.61.074.91.17 2.224.19 2.93.19 3.33v.284c0 .645 0 1.072.895 9.794.957.502 5.006 3.27 4.592 13.68-.06 1.506-.088 2.883-.115 4.131-.156 7.074-.23 10.621-5.596 13.517-.847.462-14.494.57-18.658.597l-.34-.38c2.137-19.187-4.544-28.201-6.64-30.52l-.094-.102c-.156-.17-.32-.346-.482-.51-4.992-5.086-13.565-7.209-20.822-5.174-7.258 2.035-12.514 8.139-14.596 17.058-2.49 10.574-.82 22.382-.461 24.634v.122l-.34.339h-2.034c-25.51.156-48.007.278-66.876.353-14.908.054-26.994.081-35.927.081zm-18.51-.808c4.463.244 49.309.136 121.352-.312h1.642c-.455-2.95-1.9-14.325.515-24.566 2.137-9.197 7.461-15.437 15.07-17.56 7.61-2.123 16.34.095 21.495 5.358.17.163.332.346.488.516l.109.128c8.281 9.103 7.413 25.3 6.857 30.657 6.708-.047 17.214-.217 17.966-.522 5.006-2.713 5.074-5.907 5.23-12.927 0-1.255.054-2.632.115-4.144.434-11.008-4.307-13.097-4.361-13.118l-.204-.278c-.942-8.946-.936-9.367-.922-10.065v-.271c0-.387 0-1.079-.19-3.276 0-.306-.04-.604-.068-.91-.088-1.125-.176-2.312-.264-3.553 0-.441-.054-.963-.068-1.526v-.394c-.015-2.02-.208-4.036-.577-6.023-.257-1.207-.76-2.835-1.695-3.77-.03-.027-.058-.056-.082-.089-.608-.607-1.409-.984-2.265-1.065-10.072-.99-13.266-3.662-19.628-8.98-4.223-3.618-8.63-7.014-13.206-10.173-10.282-6.301-23.847-10.093-42.675-11.938l-39.454.055c-2.15.27-4.117.529-6.003.902-1.465.298-2.713.508-3.873.678-5.175.855-8.03 1.323-16.956 7.725-1.424 1.024-3.018 2.211-4.748 3.527-5.209 3.975-12.14 9.55-22.477 18.082-3.065 2.53-8.715 5.162-8.953 5.277l-.088-.19v.217c-6.925 1.051-20.476 3.934-24.932 4.884-13.077 2.794-23.922 5.588-34.51 13.788-12.622 9.747-14.094 18.415-12.615 34.15.472 4.254 3.83 7.613 8.085 8.085 3.31.434 12.588 1.078 14.602 1.214-.162-2.523-.84-16.665 3.717-27.747 3.792-9.21 10.113-13.986 18.795-14.19H299.712c17.01 0 22.097 17.67 23.61 28.202.827 5.42.997 12.12.488 14.142z"/>
                <path fill="#CA5858" d="M377.853 107.17L394.443 107.15 394.443 112.935 368.195 112.935 370.962 108.798zM244.95 171.923H266.471V200.823H244.95z"/>
                <path fill="#306DBD" d="M337.66 143.002l-.265-.047c.407.013.53.02.265.047z"/>
                <path fill="#FFF" d="M254.445 177.708c.292-.001.576-.086.821-.244 5.263-3.391 11.239-4.11 12.1-5.026l7.21-7.596c.415-.433.537-1.069.311-1.624-.225-.556-.757-.926-1.356-.947h-21.297c-4.666 0-12.147 7.386-14.31 13.389-.165.466-.094.982.19 1.387.284.404.746.645 1.24.648l15.091.013z"/>
                <path fill="#3B3C40" d="M254.445 178.15h-15.09c-.64.001-1.241-.31-1.608-.835-.366-.528-.455-1.2-.238-1.804 2.15-5.976 9.68-13.68 14.725-13.68h21.31c.762.004 1.445.467 1.73 1.173.32.725.17 1.572-.38 2.143l-7.202 7.596c-.407.428-1.39.726-3.019 1.214-3.223.847-6.309 2.152-9.163 3.873-.316.207-.686.318-1.065.32zm-2.21-15.438c-4.287 0-11.694 6.98-13.898 13.097-.118.333-.069.702.133.991.202.29.531.464.884.467h15.091c.208 0 .41-.062.584-.176 2.926-1.767 6.089-3.107 9.393-3.981.916-.202 1.799-.528 2.625-.97l7.21-7.603c.3-.319.383-.785.21-1.187-.153-.386-.527-.64-.942-.638h-21.29z"/>
                <path fill="#FFF" d="M199.92 175.857c-1.356-4.07-5.072-8.743-8.891-11.66-4.938 4.484-7.868 9.11-8.912 12.921-.061.204-.109.394-.156.59h16.637c.45-.002.873-.221 1.135-.588.262-.366.332-.836.188-1.263z"/>
                <path fill="#3B3C40" d="M198.598 178.15h-16.637c-.136 0-.264-.062-.346-.17-.086-.104-.117-.243-.081-.374.047-.203.101-.4.156-.61 1.166-4.232 4.381-8.892 9.04-13.124.165-.14.406-.14.57 0 4.07 3.106 7.712 7.874 9.041 11.862.191.568.095 1.192-.257 1.676-.347.472-.9.747-1.486.74zm-16.067-.883h16.067c.307.003.595-.144.773-.393.184-.256.232-.584.13-.882-1.228-3.683-4.674-8.247-8.445-11.218-4.395 4.07-7.42 8.465-8.519 12.46l-.006.033z"/>
                <path fill="#F1F9F8" d="M255.585 177.871l-.115.081v-.081h.115z"/>
                <g fill="#95C6CF" opacity=".56">
                    <path d="M.733.78h.495-.495z" transform="translate(400.88 112)"/>
                </g>
                <path fill="#FFF" d="M514.195 192.711c0 .19-.055.42-.089.597-.148.85-.41 1.676-.78 2.455-.074.15-.162.292-.244.428-.08.145-.168.285-.264.42-.082.122-.17.23-.251.346-.479.592-1.033 1.119-1.648 1.567-.143.115-.299.224-.455.332l-.19.122c-.289.195-.601.384-.936.57-.807.454-17.98.502-17.98.502-.003-.036-.003-.073 0-.109.075-.678.129-1.248.176-1.709v-.285c0-.366.055-.678.075-1.065.02-.386 0-.678.047-1.065v-.149-.773c.679 0 21.65.068 22.464-2.184h.075zM333.217 206.276h.99c30.176.088 112.983-.44 112.983-.44-.436-2.834-.71-5.69-.82-8.554 0 0-121.075-.115-121.712 0h-.678c.223 4.7 0 8.763-.197 8.818-.027.02 3.276.176 9.434.176z"/>
                <g opacity=".25" style="mix-blend-mode:screen" fill="#DBE6E7">
                    <path d="M4.069 0.339L4.029 0.393 3.351 0.448 3.14 0.448 1.784 0.556 1.702 0.556 0.454 0.658 0.278 0.658z" transform="translate(409.018 141.842)"/>
                </g>
                <path fill="#FFF" d="M276.597 205.808s-82.855-.74-86.606-1.241c-4.315-.477-7.77-3.798-8.417-8.092.812.412 1.708.628 2.618.631h92.317V199.507c0 1.913 0 3.5.06 4.605 0 .36.035.679.048.923-.047.502-.02.773-.02.773z"/>
                <path fill="#E7832F" d="M508.992 155.577l-4.829-2.32 1.994-14.128c.963 1.135 1.597 2.512 1.832 3.982.377 2.086.575 4.2.59 6.321v.156c0 .556.04 1.078.068 1.512.088 1.242.176 2.422.257 3.554.041.32.068.624.088.923z"/>
                <path fill="#3B3C40" d="M238.642 167.453c-.19.183-6.49 6.416-6.782 6.66-1.405 1.1-3.127 1.719-4.91 1.764l-20.396-.448c-1.266-.096-2.433-.721-3.215-1.722-.339-.448-2.665-5.426-2.645-5.426-.576-1.221.095-2.157 1.357-2.184l35.397-.78c1.94-.014 2.374.997 1.194 2.136z"/>
                <path fill="#EEE" d="M200.606 186.912v4.585c0 .904.73 1.638 1.634 1.641l27.13.136c.438.002.858-.17 1.168-.478.31-.308.486-.726.487-1.163v-4.748c0-.437-.173-.855-.483-1.163-.309-.308-.728-.48-1.165-.478h-27.13c-.44 0-.861.176-1.17.49-.309.314-.478.738-.471 1.178z"/>
                <path fill="#3B3C40" d="M229.35 193.613l-27.096-.135c-1.09-.008-1.97-.891-1.974-1.981v-4.585c0-.525.209-1.029.58-1.4.372-.372.876-.58 1.4-.58h27.13c1.096 0 1.984.885 1.988 1.98v4.748c-.007 1.093-.894 1.977-1.987 1.98l-.04-.027zm-27.13-8.003c-.345 0-.676.137-.92.381-.245.244-.382.576-.382.921v4.585c0 .717.579 1.299 1.295 1.302l27.13.136c.72 0 1.306-.582 1.31-1.302v-4.748c-.004-.72-.59-1.302-1.31-1.302l-27.123.027z"/>
                <path fill="#306DBD" d="M228.136 186.607h-2.245v5.338h2.218c.293.001.574-.113.781-.32.208-.206.324-.487.324-.78V187.7c0-.598-.48-1.085-1.078-1.092z"/>
                <ellipse cx="186.566" cy="189.272" fill="#F39F29" rx="3.608" ry="4.761"/>
                <ellipse cx="249.352" cy="189.272" fill="#F39F29" rx="3.676" ry="4.856"/>
                <path fill="#EEE" d="M379.345 110.12c-6.057 2.47-19.764 13.315-31.254 22.715l-4.307 3.534-1.736 1.438c-3.066 2.523-8.878 5.23-8.878 5.23-6.274.949-29.965.426-66.469.576-.617 0-2.19-.122-2.889-.197-.047-.005-.086-.04-.096-.087-.009-.047.013-.094.055-.117 3.67-2.197 43.3-23.141 52.599-26.858 2.455-.984 13.293-5.623 19.269-6.105 6.28-.556 38.355-1.437 43.706-.128z"/>
                <path fill="#3B3C40" d="M309.994 143.965h-11.666c-9.217 0-19.67-.047-31.633 0-.631 0-2.212-.122-2.93-.196-.193-.025-.349-.168-.389-.358-.04-.19.046-.384.212-.483 3.391-2.035 43.103-23.06 52.646-26.88l.909-.366c3.554-1.458 12.995-5.317 18.455-5.785 5.71-.482 38.335-1.431 43.815-.095.143.035.247.158.258.305.013.147-.073.285-.21.34-6.193 2.522-20.755 14.14-31.2 22.666-1.479 1.2-2.923 2.388-4.307 3.527l-1.736 1.445c-2.883 2.374-8.072 4.856-8.858 5.23-.045.036-.099.06-.156.067-3.222.495-11.232.583-23.21.583zm-28.27-.719h16.604c18.313.041 30.447.068 34.72-.556.468-.217 5.894-2.794 8.776-5.168l1.737-1.438 4.306-3.534c9.916-8.139 23.597-19.038 30.325-22.307-7.46-.997-36.164-.238-42.533.298-5.358.455-14.732 4.287-18.258 5.731l-.916.373c-9.116 3.643-45.83 23.06-51.92 26.452.74.061 1.689.115 2.143.136l15.03.013h-.013z"/>
                <path fill="#EEE" d="M421.6 140.29c.05.836-.237 1.658-.796 2.282-.559.624-1.345.999-2.182 1.04h-68.035c-.082-.216-.121-.446-.116-.678.34-1.092 1.1-1.295 4.24-4.123l25.91-22.322c4.069-3.14 5.391-5.717 8.938-5.758l19.324-.326h5.168l1.696.075h.25c.754 0 1.486.075 2.212.122 1.055.227 1.81 1.159 1.81 2.238l1.357 23.597.224 3.852z"/>
                <path fill="#3B3C40" d="M350.587 143.952c-.142-.002-.268-.091-.319-.224-.093-.252-.14-.518-.135-.787-.003-.03-.003-.059 0-.088.25-.814.678-1.173 1.865-2.15.59-.488 1.357-1.153 2.469-2.123l25.916-22.328c1.227-.943 2.19-1.831 3.045-2.618 2.035-1.852 3.5-3.195 6.104-3.222l19.317-.325h5.189l1.702.074h.25c.754 0 1.486.075 2.219.122 1.223.244 2.108 1.31 2.123 2.557l1.58 27.402c.055.926-.262 1.837-.88 2.528-.62.692-1.49 1.107-2.416 1.155l-68.029.027zm.258-.679h67.777c.745-.04 1.442-.375 1.937-.932.496-.556.748-1.288.702-2.031l-1.58-27.402c.013-.927-.632-1.735-1.54-1.926l-2.157-.115h-.25l-1.69-.075h-5.154l-19.324.326c-2.353 0-3.67 1.227-5.656 3.045-.868.794-1.845 1.689-3.08 2.638l-25.895 22.315c-1.085.97-1.892 1.648-2.483 2.136-1.064.882-1.444 1.194-1.64 1.784.002.08.014.16.033.237z"/>
                <path fill="#3B3C40" d="M413.766 136.701H399.34c-.187 0-.34-.152-.34-.339v-14.61c0-.187.153-.339.34-.339h17.112c.681.004 1.324.319 1.743.856.419.537.57 1.236.407 1.898l-2.713 10.852c-.241.98-1.114 1.671-2.123 1.682zm-14.087-.678h14.087c.707.002 1.323-.48 1.492-1.167l2.713-10.852c.112-.459.008-.944-.283-1.317-.29-.373-.736-.592-1.209-.595h-16.773l-.027 13.931z"/>
                <path fill="#3B3C40" d="M399.306 143.952c-.186-.004-.336-.154-.34-.34v-7.243c0-.187.153-.34.34-.34h21.426c.263.002.525.048.773.136.125.048.21.165.217.299l.217 3.805c.056.926-.261 1.837-.88 2.528-.62.692-1.49 1.108-2.416 1.155h-19.337zm.34-.679h18.99c.744-.04 1.441-.375 1.937-.932.495-.556.748-1.288.701-2.031l-.203-3.568c-.107-.022-.216-.033-.326-.034H399.66l-.014 6.565zM343.784 136.708H323.56c-.699 0-1.357-.329-1.776-.888-.42-.56-.55-1.283-.354-1.954l3.168-10.852c.272-.95 1.142-1.603 2.13-1.6h21.703c.684-.002 1.33.312 1.751.85.422.538.571 1.24.406 1.903l-2.163 8.75c-.021.07-.061.133-.116.183-1.478 1.2-2.923 2.387-4.307 3.527-.06.053-.137.082-.217.081zm-17.064-14.616c-.686 0-1.289.453-1.479 1.112l-3.167 10.852c-.134.466-.042.967.248 1.355.29.387.746.616 1.23.619h20.11c1.357-1.092 2.713-2.232 4.13-3.391l2.137-8.641c.113-.46.007-.947-.285-1.32-.292-.374-.74-.592-1.214-.593l-21.71.007z"/>
                <path fill="#EEE" d="M479.923 141.368c.009.817-.27 1.612-.787 2.245h-43.822c-2.13-.065-3.908-1.644-4.225-3.751l-3.866-26.133c-.072-.533.098-1.07.465-1.465.366-.394.89-.603 1.427-.57h.081c29.165 3.792 36.626 14.644 49.655 27.049.687.675 1.072 1.6 1.065 2.564.004.02.006.04.007.06z"/>
                <path fill="#3B3C40" d="M479.136 143.952h-43.822c-2.306-.07-4.229-1.786-4.558-4.07l-3.866-26.133c-.095-.64.105-1.288.543-1.763.435-.477 1.065-.728 1.71-.678h.067c25.773 3.35 34.882 12.344 45.395 22.762 1.438 1.424 2.93 2.896 4.483 4.381.744.732 1.164 1.73 1.167 2.774.003.036.003.073 0 .109.01.896-.296 1.767-.861 2.462-.056.09-.152.149-.258.156zm-50.102-31.953c-.419-.008-.82.162-1.106.468-.299.324-.433.766-.366 1.2l3.839 26.14c.29 1.947 1.933 3.406 3.9 3.466h43.645c.407-.548.622-1.216.61-1.899h.34-.34c.015-.89-.332-1.75-.963-2.38-1.56-1.492-3.052-2.964-4.49-4.389-10.424-10.33-19.432-19.248-44.974-22.572l-.095-.034z"/>
                <path fill="#CA5858" d="M415.747 110.514L413.807 110.446 413.807 110.446 414.017 110.446z"/>
                <path fill="#3B3C40" d="M410.687 155.02h9.217v-2.712h-11.916c0 1.493 1.206 2.705 2.699 2.713zM464.994 155.13h9.218v-2.714h-11.924c0 1.496 1.21 2.71 2.706 2.713z"/>
                <path fill="#F0BB45" d="M399.754 143.613l-17.472.108c2.008-3.477 5.289-6.038 9.15-7.142 5.507-1.573 14.494-2.652 16.576-.44 3.398 3.594.15 6.307-8.254 7.474z"/>
                <path fill="#3B3C40" d="M381.692 144.067l.298-.515c2.046-3.56 5.403-6.18 9.353-7.298 3.147-.883 6.377-1.438 9.638-1.655 2.611-.156 5.99-.055 7.271 1.302 1.282 1.356 1.682 2.577 1.282 3.73-.719 2.035-4.07 3.534-9.733 4.32h-.04l-18.07.116zm21.114-8.817c-3.816.087-7.606.655-11.28 1.689-3.582 1.015-6.66 3.323-8.64 6.477l16.847-.109c5.29-.739 8.546-2.109 9.157-3.866.318-.888-.068-1.912-1.126-3.038-.78-.862-2.652-1.187-4.958-1.187v.034z"/>
                <path fill="#FCF0E0" d="M389.668 143.314c-.434-.142 7.122-3.981 6.62-4.002-.957 0-8.478 3.229-8.641 3.215-2.642-.12-5.289-.059-7.922.184l1.824 6.104c3.46.875 6.254 1.573 7.075 1.112 1.634-.916 1.844-.393 2.109-1.302l.481-1.662-1.546-3.649z"/>
                <path fill="#FAB995" d="M393.419 130.02l.854 1.642.292.536 2.103 3.988-.882.536c2.787 3.323 10.906.345 11.727-3.392-1.1-.162-2.158-.537-3.113-1.105-.9-1.014-1.674-2.132-2.306-3.33l-.753-1.2-.679-1.127-.827.414-.516.244h-.366l-.217.129-1.885.93-.197.121-1.268.61-1.967 1.004z"/>
                <path fill="#3B3C40" d="M399.469 138.499c-1.483.094-2.93-.478-3.948-1.56-.062-.077-.088-.176-.073-.273.016-.097.072-.183.155-.236l.61-.366-3.106-5.888c-.085-.164-.022-.367.142-.454l1.987-1.03 3.561-1.778c.05-.03.106-.046.163-.047h.292l1.268-.624c.16-.077.352-.018.44.135l.68 1.126.752 1.187c.613 1.165 1.362 2.253 2.231 3.242.904.538 1.904.893 2.944 1.045.093.012.176.064.23.141.052.078.07.174.048.266-.522 2.407-3.527 4.191-6.104 4.822-.743.189-1.506.287-2.272.292zm-3.154-1.71c1.112 1.025 3.038 1.31 5.256.76 2.673-.678 4.91-2.286 5.5-3.968-1.007-.19-1.974-.558-2.855-1.085l-.074-.061c-.916-1.032-1.704-2.17-2.347-3.391l-1.255-2.035-1.065.522c-.049.01-.1.01-.149 0h-.278l-.142.082-3.391 1.675-1.669.861 3.093 5.86c.087.158.033.357-.122.448l-.502.332z"/>
                <path fill="#3B3C40" d="M391.621 117.527c-.142 4.28 1.764 12.568 6.044 12.717 4.28.15 7.603-4.212 8.044-7.535.22-4.187-2.99-7.763-7.176-7.997h-.455c-4.252-.339-6.307-1.417-6.457 2.815z"/>
                <path fill="#3B3C40" d="M397.875 130.583h-.224c-2.035-.074-3.764-1.81-4.985-5.032-.936-2.575-1.396-5.298-1.357-8.037.055-1.533.353-2.449.963-2.978.848-.732 2.144-.583 3.941-.38.583.068 1.221.143 1.92.197h.447c4.363.27 7.693 4.005 7.461 8.37-.414 3.35-3.737 7.86-8.166 7.86zm-5.915-13.05c-.028 2.655.432 5.292 1.357 7.78.773 2.035 2.164 4.51 4.375 4.592h.203c4.07 0 7.088-4.171 7.46-7.237.205-3.997-2.86-7.408-6.856-7.63h-.434c-.733-.054-1.357-.129-1.967-.197-1.628-.183-2.801-.319-3.391.217-.455.387-.679 1.18-.733 2.483l-.014-.007z"/>
                <path fill="#FAB995" d="M391.621 117.575c-.578.98-1.083 2.003-1.512 3.058.244.696.244 1.455 0 2.15 0 .272-.346.536-.516.835l-1.356 2.17s-.197.76.387.74c.3-.049.601.071.786.311.056.33-.007.669-.176.957-.488.563.319.929.59.976.271.048-.319 0-.44.61-.095.24.02.511.257.611h.108c.563.414-.678 1.906.957 2.449 1.725.455 3.548-.24 4.53-1.73l3.609-3.58s1.641 0 1.933-1.357c.291-1.357 0-2.91-1.492-2.863-1.784 0-1.615 2.15-1.615 2.15s-1.173 1.547-1.05-.556c-.032-1.249-.497-2.448-1.317-3.391.288-.639.347-1.357.17-2.035-.278-1.214-3.853-1.505-3.853-1.505z"/>
                <path fill="#3B3C40" d="M391.696 132.95c-.384.003-.765-.052-1.133-.162-1.288-.42-1.153-1.411-1.065-2.001.017-.153.017-.308 0-.461h-.054c-.197-.08-.354-.235-.437-.431-.083-.196-.084-.417-.004-.614.021-.134.072-.261.15-.373-.198-.116-.35-.295-.435-.509-.091-.284-.015-.596.197-.807.086-.184.121-.388.102-.59-.13-.093-.29-.134-.448-.115-.228.01-.45-.081-.603-.251-.167-.272-.214-.601-.13-.909.011-.035.025-.069.041-.102l1.398-2.17c.072-.12.156-.234.25-.34.086-.092.157-.197.21-.311-.006-.038-.006-.077 0-.115.218-.624.218-1.303 0-1.927-.03-.076-.03-.16 0-.237.436-1.069.949-2.105 1.534-3.1.067-.11.19-.175.318-.17.645.055 3.84.387 4.124 1.791.171.674.131 1.385-.115 2.035.794.979 1.24 2.193 1.268 3.452-.029.252-.015.506.04.753.126-.083.237-.183.333-.298-.03-.658.18-1.304.59-1.818.377-.384.901-.587 1.438-.556.52-.02 1.02.2 1.357.597.533.798.68 1.794.4 2.713-.27.946-1.132 1.6-2.116 1.607l-3.486 3.453c-.834 1.237-2.232 1.976-3.724 1.967zm-3.08-6.782c.414-.04.817.146 1.052.488.02.034.034.07.04.109.069.406-.005.823-.21 1.18-.06.075-.122.15-.108.19.013.04.319.258.461.285.258.047.332.196.346.319-.006.161-.103.306-.25.373-.14.05-.24.172-.265.318-.048.13 0 .204.054.224.065.015.126.04.183.075.373.278.305.732.25 1.14-.094.644-.108 1.017.605 1.254 1.578.408 3.242-.229 4.144-1.587l.047-.061 3.608-3.574c.063-.064.149-.1.238-.102.054 0 1.356 0 1.6-1.079.218-.703.124-1.466-.257-2.095-.222-.255-.553-.386-.889-.353-.328-.023-.65.099-.881.332-.299.425-.442.94-.407 1.458.005.083-.02.165-.068.231-.197.251-.679.828-1.194.638-.515-.19-.502-.855-.468-1.425-.03-1.165-.467-2.283-1.234-3.16-.088-.099-.11-.24-.055-.36.262-.574.314-1.222.15-1.831-.13-.644-1.967-1.106-3.304-1.241-.51.874-.963 1.78-1.356 2.713.234.716.234 1.488 0 2.204-.052.256-.177.492-.36.678-.071.084-.137.172-.196.265l-1.357 2.136c-.025.087-.025.178 0 .265l.082-.007zM401.992 127.6c0-4.308 4.035-5.237 3.18-2.985-.854 2.252-1.295 3.642-2.224 4.157-.93.516-2.767-1.322-2.767-1.322l1.81.15z"/>
                <path fill="#3B3C40" d="M402.568 129.227c-1.051 0-2.34-1.228-2.625-1.513-.1-.099-.128-.251-.067-.38.064-.123.193-.199.332-.196l1.458.122c.109-2.123 1.208-3.527 2.293-3.988.444-.25.994-.21 1.397.102.176.176.434.583.129 1.39l-.251.678c-.74 1.96-1.18 3.147-2.123 3.67-.169.081-.355.12-.543.115zm-1.356-1.357c.597.448 1.261.787 1.58.604.726-.4 1.16-1.56 1.825-3.31l.25-.678c.143-.373.11-.583 0-.678-.108-.095-.325-.109-.678.034-.678.298-1.892 1.424-1.892 3.73 0 .095-.04.185-.109.25-.072.06-.164.091-.257.09l-.72-.042z"/>
                <path fill="#EEE" d="M389.383 124.106l6.301 1.357 1.994-1.242-.115.462-1.818 1.248.238 1.987 1.017 1.356 1.831-2.123.129.068-1.777 2.3-4.524 3.486s-2.36.583-3.249-1.106c-1.037-1.967-1.316-5.928-1.316-5.928l1.29-1.865z"/>
                <path fill="#3B3C40" d="M391.723 133.425c-1.058.085-2.072-.442-2.611-1.356-1.058-2.035-1.357-5.894-1.357-6.064-.006-.077.016-.154.061-.217l1.29-1.845c.081-.108.218-.16.352-.135l6.158 1.322 1.879-1.166c.117-.073.265-.067.377.013.111.08.163.22.132.353l-.109.461c-.02.082-.067.154-.135.204l-1.655 1.126.21 1.688.678.936 1.56-1.797c.102-.12.274-.154.414-.081l.129.06c.088.05.152.133.176.231.02.098-.005.2-.068.278l-1.777 2.3c-.013.026-.034.047-.06.06l-4.525 3.487c-.033.032-.076.053-.122.06-.328.067-.663.094-.997.082zm-3.283-7.38c.061.68.38 3.982 1.269 5.678.678 1.289 2.441 1.01 2.8.943l4.2-3.236-.991-1.315c-.039-.049-.063-.108-.068-.17l-.237-1.98c-.011-.073.003-.147.04-.21l-5.92-1.27-1.093 1.56z"/>
                <path fill="#E7832F" d="M509.304 161.132l-6.036-2.903c-.609-.293-.934-.968-.783-1.626.152-.658.739-1.124 1.414-1.121.215-.001.428.045.624.136l4.592 2.21c.162 2.124.19 2.876.19 3.304z"/>
                <path fill="#3B3C40" d="M342.333 134.863c-1.974-1.872-3.201-4.398-3.452-7.108-.095-.97-.109-1.906-.136-2.815-.109-3.004-2.883-11.57-10.296-10.173-1.5-.35-3.079-.071-4.368.773-2.326 1.424-5.643 7.657-7.515 13.89-.837 2.603-1.32 5.306-1.438 8.038-.047 2.197.353 4.015 1.357 5.107.169.19.363.357.576.495.407.277.87.46 1.357.536.648.112 1.311.112 1.96 0 .129 0 .265-.04.4-.068.312-.068.638-.15.977-.258-.102-.17.21-.461.8-.753.506-.245 1.036-.438 1.58-.576 2.076-.543 5.026-.617 6.837 1.356.868-.06 1.594-.135 2.17-.223l.19-.095c.679-.306 2.917-1.411 5.176-2.747 1.229-.71 2.403-1.51 3.513-2.395.536-.447 1.092-.902 1.662-1.356-.416-.57-.867-1.114-1.35-1.628z"/>
                <path fill="#F4B078" d="M333.902 136.627s-.183 2.102-.434 5.086c-.04.4-.074.814-.108 1.228l-.19.095c-.583.088-1.357.163-2.205.224-2.428.183-5.988.278-10.594.319-.648.112-1.311.112-1.96 0h-1.499c.054-.19.109-.373.163-.543.774-2.611 1.751-5.158 2.923-7.617l1.357-.217c1.437-.23 2.546-1.389 2.713-2.835v-.02c.081-.678.142-1.357.19-1.913 0-.312.047-.59.054-.82.006-.027.006-.055 0-.082v-.156-.475l5.094-.373.678-.04h.332c-.107.832-.161 1.67-.163 2.51-.007.99.09 1.98.292 2.95.24 1.065 1.007 1.934 2.035 2.306.413.081 1.024.237 1.322.373z"/>
                <path fill="#3B3C40" d="M324.393 128.895s-.095 1.777-.291 3.438c3.147.299 5.154-2.353 6.03-3.859l-5.739.42z"/>
                <path fill="#F4B078" d="M323.152 130.312s7.4 1.038 7.976-3.588c.577-4.625 1.92-7.596-2.78-8.458-4.7-.861-5.847.794-6.417 2.286-.57 1.492-.692 9.394 1.221 9.76z"/>
                <path fill="#FFF" d="M321.612 123.326c-.902 3.663.455 6.783 1.54 7.013 1.671.207 3.367.087 4.992-.352 1.14-1.269 2.984-3.236 2.984-3.236l-1.872 1.418c-.113.09-.264.115-.401.069-.137-.047-.241-.16-.277-.3-.063-.182-.15-.355-.258-.515-.217-.343-.31-.75-.264-1.153.02-.226.02-.453 0-.679-.02-.161.03-.324.138-.447.107-.123.262-.194.425-.197.785.01 1.57-.042 2.346-.156l-6.918-.63-1.017-.238-1.418-.597z"/>
                <path fill="#EEE" d="M321.612 123.326c-.902 3.663.455 6.783 1.54 7.013 1.671.207 3.367.087 4.992-.352 1.14-1.269 2.984-3.236 2.984-3.236l-1.872 1.418c-.113.09-.264.115-.401.069-.137-.047-.241-.16-.277-.3-.063-.182-.15-.355-.258-.515-.217-.343-.31-.75-.264-1.153.02-.226.02-.453 0-.679-.02-.161.03-.324.138-.447.107-.123.262-.194.425-.197.785.01 1.57-.042 2.346-.156l-6.918-.63-1.017-.238-1.418-.597z"/>
                <path fill="#3B3C40" d="M324.861 130.78c-.587.002-1.174-.034-1.756-.108-.497-.148-.913-.49-1.153-.95-.808-1.289-1.357-3.785-.679-6.477.024-.095.089-.174.177-.217.087-.044.19-.044.278 0l1.458.563.977.223 6.87.624c.092.008.176.055.23.13.063.072.088.17.069.264-.048.319-.061.373-2.666.434-.07.004-.136.035-.183.088-.048.05-.069.122-.054.19.023.257.023.516 0 .773-.036.33.04.662.217.943.132.187.235.393.305.61.006.025.023.046.048.055.026.008.054.008.081 0l1.872-1.418c.143-.09.33-.063.442.063.112.125.118.314.012.446 0 0-1.858 1.974-2.984 3.228-.041.043-.093.076-.15.095-1.107.32-2.258.469-3.41.441zm-3.004-6.993c-.451 1.878-.21 3.855.678 5.569.136.3.377.542.678.678 1.588.19 3.198.084 4.748-.312.305-.34.678-.726 1.004-1.106-.072 0-.144-.014-.21-.04-.239-.082-.42-.278-.482-.522-.058-.149-.133-.29-.224-.421-.25-.405-.36-.882-.312-1.356.02-.208.02-.417 0-.624-.027-.259.054-.516.224-.713l.054-.06-3.974-.36-1.072-.251-1.112-.482z"/>
                <path fill="#3B3C40" d="M325.153 118.022c.095.77.245 1.531.448 2.28.198.752.463 1.485.793 2.19.319.712.752 1.367 1.282 1.94.531.574 1.209.994 1.96 1.214-.77-.193-1.473-.592-2.035-1.153-.553-.564-1.012-1.215-1.356-1.927-.363-.7-.66-1.434-.889-2.19-.235-.757-.416-1.53-.542-2.313l.339-.04z"/>
                <path fill="#3B3C40" d="M324.977 117.764s1.356 5.677 4.381 6.858c3.025 1.18 4.476.522 4.476.522-1.37-1.543-2.164-3.513-2.245-5.575 0 0-4.76-4.178-6.612-1.805z"/>
                <path fill="#3B3C40" d="M325.431 118.266c-.9.224-1.713.714-2.333 1.404-.183.245-.353 1.791-.522 2.083-.51.888-.841.746-1.072 2.075 0 0-1.01-3.913.97-5.785 2.096-1.974 2.957.223 2.957.223z"/>
                <path fill="#9D2066" d="M318.411 143.599h-9.692c2.577-2.564 5.46-5.243 6.41-6.172.162-.156.27-.265.305-.305 1.16-1.357 4.578-1.723 4.578-1.723s5.283 6.62 13.89 1.2c.777.242 1.512.604 2.177 1.072.974.664 1.808 1.512 2.456 2.496-2.259 1.357-4.524 2.442-5.175 2.747l-.19.095c-.583.088-1.357.163-2.205.224-2.428.183-5.988.278-10.594.319-.646.127-1.309.144-1.96.047z"/>
                <path fill="#3B3C40" d="M319.3 144.02c-.307 0-.614-.027-.916-.082h-10.485l.583-.576c1.722-1.723 3.567-3.473 4.917-4.748.678-.624 1.18-1.12 1.492-1.431.1-.085.193-.178.278-.278 1.241-1.459 4.666-1.832 4.809-1.845h.183l.115.15c.21.257 5.21 6.307 13.45 1.125l.122-.081.142.04c.816.248 1.585.626 2.28 1.12 1.01.688 1.877 1.568 2.55 2.59l.196.292-.305.183c-2.408 1.431-4.748 2.55-5.209 2.767l-.203.095-.068-.162v.183c-.563.088-1.296.162-2.232.23-2.238.17-5.602.272-10.567.319-.374.065-.753.101-1.132.109zm-.855-.76c.59.102 1.194.102 1.784 0h.115c4.978-.048 8.336-.15 10.567-.319.868-.06 1.553-.129 2.082-.203l.15-.075c.271-.129 2.523-1.2 4.85-2.557-.593-.823-1.325-1.534-2.164-2.103-.597-.418-1.25-.749-1.94-.983-7.95 4.91-13.199-.258-14.074-1.214-.678.088-3.27.502-4.178 1.58l-.34.34-1.491 1.424c-1.194 1.132-2.781 2.638-4.327 4.157h8.905l.061-.047z"/>
                <path fill="#3B3C40" d="M289.084 143.735c3.35-5.976 13.944-5.426 16.678 0h3.391c-4.53-8.14-17.512-8.173-22.057 0h1.988z"/>
                <path fill="#FAB995" d="M371.939 145.023l-.51-1.62-1.247-.116-.387-.61-.529-.217c-.45-.185-.94-.257-1.424-.21l-3.439.149h-.454c-1.357.094-5.297.352-6.403.278-.036-.002-.072.011-.098.037-.026.026-.04.062-.038.098.014.21.075.414.177.597-.522 0-.855-.034-.855-.034s-.346 1.099 1.831 1.12l3.887-.102c-1.043.558-2.138 1.013-3.27 1.356.265.733.679.95 1.676.577.997-.373 1.818-1.601 3.391-1.018 1.722.567 3.593.465 5.243-.285.073-.095.155-.184.244-.264l2.205.264z"/>
                <path fill="#3B3C40" d="M360.015 146.889c-.173.003-.344-.032-.502-.102-.334-.19-.579-.504-.678-.875-.031-.093-.022-.194.026-.28.048-.085.13-.146.225-.168.607-.153 1.192-.38 1.743-.678l-2.286.054c-1.004 0-1.675-.237-1.994-.678-.189-.252-.249-.579-.163-.882.037-.153.183-.255.34-.237h.345v-.224c-.008-.134.041-.265.136-.36.097-.095.23-.145.366-.135 1.092.075 5.141-.19 6.349-.278h.468l3.438-.15c.534-.045 1.07.036 1.567.238l.53.217c.062.027.117.072.155.129l.299.475 1.078.095c.135.014.25.107.292.237l.508 1.621c.035.11.012.23-.06.319-.071.087-.18.133-.292.122l-2.035-.204-.102.123c-.039.041-.085.076-.135.101-1.73.786-3.692.89-5.494.292-.97-.353-1.594.054-2.252.488-.293.21-.61.386-.943.522-.294.127-.609.2-.93.218zm-.38-.869c.038.065.095.117.163.15.305.066.623.025.902-.116.284-.123.555-.275.807-.454.784-.683 1.871-.898 2.856-.563 1.615.533 3.37.443 4.924-.251.074-.088.149-.163.217-.23.073-.063.168-.094.264-.089l1.689.17-.285-.916-1.024-.095c-.103-.012-.195-.069-.251-.156l-.332-.522-.428-.17c-.401-.163-.836-.229-1.268-.19l-3.452.15h-.407c-1.506.115-4.884.332-6.233.298.02.076.05.149.088.217.065.106.065.24 0 .346-.061.11-.18.173-.305.163h-.468c.108.142.44.386 1.43.393l3.874-.102c.163-.003.306.111.339.272.038.158-.046.32-.197.38-.346.149-.678.318-1.017.481-.601.337-1.233.616-1.886.834z"/>
                <path fill="#F0BB45" d="M411.277 135.61c-2.177-1.981-4.897-3.446-7.556-1.635-.746.508-2.713 1.926-4.802 3.58l-11.09 5.644c-4.916-.875-12.336 0-18.929-1.146-.577-.102-.678.284-.678.678l.237 4.347c.102-.101.55-.21 2.177-.074 6.206.515 14.244 3.432 17.174 3.452.608.167 1.25.167 1.858 0 .811-.274 1.638-.5 2.476-.678.997-.23 2.034-.387 3.011-.604.977-.217 1.98-.495 2.957-.787.848-.25 1.696-.522 2.53-.82 2.753-1.017 5.43-2.23 8.01-3.629.473-.2.988-.28 1.5-.23.044.003.09.003.135 0h5.826c-.726-3.656-1.994-5.833-4.836-8.099z"/>
                <path fill="#3B3C40" d="M388.786 150.877c-.345 0-.69-.043-1.024-.13-1.356 0-3.723-.616-6.464-1.315-3.504-.989-7.08-1.7-10.696-2.13-.641-.113-1.298-.113-1.94 0l-.528.53v-.774l-.238-4.347c-.046-.31.057-.621.278-.842.222-.18.516-.245.794-.176 3.513.501 7.06.728 10.608.678 2.745-.047 5.49.11 8.213.468l10.988-5.568c2.082-1.648 4.035-3.066 4.748-3.56 2.326-1.581 5.005-1.025 7.962 1.66 2.667 1.972 4.447 4.917 4.952 8.194l.088.407h-6.247c-.031.005-.064.005-.095 0h-.068c-.462-.05-.929.02-1.356.204-.265.115-.638.312-1.113.562-2.229 1.197-4.543 2.226-6.925 3.08-.834.291-1.688.57-2.55.82-.861.251-1.967.577-2.984.794-.448.102-.902.183-1.357.264-.556.109-1.105.21-1.654.333-.824.18-1.637.407-2.435.678-.308.109-.63.166-.957.17zm-19.432-4.287c.326 0 .747 0 1.31.061 3.431.285 7.345 1.282 10.797 2.15 2.713.678 5.087 1.289 6.349 1.302h.088c.541.15 1.113.15 1.655 0 .823-.284 1.66-.523 2.51-.719.562-.128 1.118-.23 1.681-.339.448-.081.896-.162 1.357-.264.936-.197 1.851-.455 2.937-.78.847-.251 1.688-.522 2.516-.814 2.351-.84 4.637-1.857 6.837-3.039.488-.257.875-.46 1.146-.576.51-.222 1.067-.313 1.62-.265h5.563c-.547-2.983-2.217-5.644-4.667-7.433-2.713-2.49-5.073-3.012-7.135-1.608-.719.489-2.659 1.893-4.748 3.568l-11.252 5.704h-.108c-2.722-.367-5.468-.525-8.214-.475-3.582.056-7.163-.17-10.71-.678h-.23c-.055.09-.074.196-.054.298l.217 3.92c.178-.015.357-.02.535-.013z"/>
                <path fill="#F0BB45" d="M368.466 147.167v-.13c-.018.017-.028.04-.028.065s.01.048.028.065z"/>
                <path fill="#3B3C40" d="M369.132 147.947l-.835-.53c-.121-.083-.194-.197-.204-.318v-.143l.176-.17.733-.528.13 1.689zm-.39-.902l.279.033c.001-.068-.04-.133-.111-.176l-.167.143z"/>
                <path fill="#383838" d="M71.25 87.494v116.66h2.38V87.493c0-.658-.528-1.193-1.186-1.2-.318 0-.623.126-.847.352-.224.225-.349.53-.347.848z"/>
                <rect width="108.947" height="26.947" x="50.224" y="84.991" fill="#FFF" rx="8.92"/>
                <path fill="#3B3C40" d="M153.122 112.101h-96.84c-3.434-.004-6.217-2.786-6.22-6.22v-14.84c.003-3.433 2.786-6.215 6.22-6.22h96.84c3.433.005 6.215 2.787 6.22 6.22v14.854c-.012 3.428-2.792 6.202-6.22 6.206zm-96.84-26.947c-3.252 0-5.888 2.636-5.888 5.887v14.854c0 3.252 2.636 5.887 5.887 5.887h96.84c3.252 0 5.888-2.635 5.888-5.887V91.041c0-1.56-.62-3.058-1.724-4.162-1.105-1.104-2.602-1.725-4.163-1.725h-96.84z"/>
                <rect width="103.555" height="21.928" x="52.842" y="87.494" fill="#FFF" rx="5.89"/>
                <path fill="#3B3C40" d="M152.403 109.592H56.844c-2.3 0-4.164-1.865-4.164-4.165V91.496c0-1.105.438-2.164 1.22-2.945.78-.78 1.84-1.22 2.944-1.22h95.559c2.298.004 4.16 1.866 4.164 4.165v13.931c-.004 2.299-1.866 4.16-4.164 4.165zM56.844 87.664c-2.116 0-3.832 1.715-3.832 3.832v13.931c0 2.117 1.716 3.832 3.832 3.832h95.559c2.115-.003 3.828-1.717 3.832-3.832V91.496c-.004-2.115-1.717-3.828-3.832-3.832H56.844z"/>
                <path fill="#383838" d="M67.655 93.26c.684.449 1.09 1.216 1.079 2.034.01.568-.177 1.121-.53 1.567-.357.453-.856.773-1.417.909.67.107 1.279.451 1.716.97.427.531.65 1.197.631 1.878.025.905-.402 1.762-1.14 2.286-.92.601-2.008.893-3.106.834H59.53V92.48h5.182c1.038-.047 2.065.225 2.943.78zm-1.94 3.452c.275-.226.426-.568.408-.923.018-.349-.134-.685-.407-.902-.33-.233-.731-.341-1.133-.305h-2.51v2.496h2.51c.408.012.808-.118 1.133-.366zm.279 4.619c.336-.225.531-.607.515-1.011.01-.39-.186-.755-.515-.963-.424-.256-.917-.375-1.411-.34h-2.51v2.673h2.51c.496.026.988-.099 1.41-.36zM73.522 92.506L73.522 101.541 78.351 101.541 78.351 103.765 70.979 103.765 70.979 92.506zM84.991 100.55h-2.59v3.215h-2.537V92.506h4.89c1.215-.074 2.418.287 3.391 1.018.825.727 1.27 1.792 1.208 2.89.024.775-.16 1.544-.536 2.224-.363.622-.91 1.115-1.567 1.41l2.394 3.717h-2.882l-1.77-3.214zm-.237-2.122c.585.036 1.163-.14 1.628-.496.398-.368.607-.897.57-1.437.037-.533-.173-1.054-.57-1.411-.47-.343-1.047-.51-1.628-.475h-2.353v3.825l2.353-.006zM101.181 98.15c.584.537.904 1.302.875 2.095.012.67-.182 1.329-.556 1.886-.39.572-.936 1.02-1.573 1.289-.755.318-1.569.473-2.388.454-.794.001-1.583-.12-2.34-.36-.707-.205-1.374-.528-1.974-.956l.984-1.885c.445.38.952.68 1.499.888.521.201 1.075.305 1.634.305.58.037 1.154-.113 1.642-.427.385-.266.605-.712.583-1.18.02-.46-.2-.897-.583-1.153-.5-.293-1.077-.43-1.655-.394H95.51v-1.444l2.815-2.713h-4.517V92.52h7.705v1.533l-3.25 3.052.584.081c.858.074 1.673.41 2.333.964zM111.871 101.222L110.324 101.222 110.324 103.765 107.991 103.765 107.991 101.222 102.748 101.222 102.748 99.438 106.194 92.506 108.601 92.506 105.373 99.18 107.991 99.18 107.991 96.684 110.324 96.684 110.324 99.18 111.871 99.18zM119.406 94.575c-.409-.127-.834-.19-1.262-.19-.81-.057-1.598.275-2.123.896-.51.717-.75 1.591-.678 2.468.283-.433.68-.78 1.146-1.003.518-.241 1.084-.36 1.655-.346.977-.052 1.931.307 2.632.99.667.715 1.017 1.669.97 2.645.013.71-.16 1.412-.502 2.035-.332.581-.827 1.053-1.424 1.356-.668.322-1.403.48-2.144.462-.889.022-1.765-.214-2.523-.679-.719-.463-1.285-1.129-1.628-1.912-.394-.94-.586-1.952-.563-2.971-.021-1.075.192-2.142.624-3.127.746-1.753 2.492-2.868 4.396-2.808.627.003 1.251.085 1.858.244.58.142 1.136.37 1.648.679l-.963 1.804c-.341-.24-.72-.424-1.12-.543zm-3.222 4.212c-.35.33-.538.795-.515 1.275-.025.46.148.91.474 1.235.383.36.9.545 1.425.508.495.025.981-.143 1.356-.468.662-.737.662-1.854 0-2.59-.37-.333-.86-.502-1.356-.469-.505-.01-.994.172-1.37.51h-.014zM127.409 100.245L126.297 101.419 126.297 103.765 123.821 103.765 123.821 91.828 126.297 91.828 126.297 98.394 129.464 95.125 132.293 95.125 129.125 98.455 132.442 103.765 129.512 103.765zM147.424 95.905c.587.666.889 1.535.841 2.42v5.427h-2.455v-4.748c.026-.477-.137-.945-.454-1.302-.323-.322-.766-.492-1.221-.468-.538-.014-1.052.218-1.397.63-.358.445-.542 1.004-.516 1.574v4.28h-2.469V98.97c.026-.472-.132-.936-.44-1.295-.319-.325-.76-.498-1.215-.475-.54-.011-1.058.22-1.41.63-.36.444-.546 1.004-.523 1.574v4.28h-2.475v-8.573h2.475v1.499c.6-1.026 1.723-1.63 2.91-1.567.655-.023 1.3.16 1.845.522.514.356.894.874 1.078 1.472.24-.608.665-1.125 1.214-1.478.593-.358 1.276-.537 1.967-.516.836-.038 1.65.274 2.245.862z"/>
                <path fill="#B0B3BF" d="M61.517 204.092H120.654V205.092H61.517zM50.414 204.092H55.752V205.092H50.414z"/>
            </g>
        </g>
    </g>
</svg>
